Coordinates
version=1
nRows=10
nColumns=34
inDegrees=yes

Units are S.I. units (second, meters, Newtons, ...)
If the header above contains a line with 'inDegrees', this indicates whether rotational values are in degrees (yes) or radians (no).

endheader
time	pelvis_tilt	pelvis_list	pelvis_rotation	pelvis_tx	pelvis_ty	pelvis_tz	hip_flexion_r	hip_adduction_r	hip_rotation_r	knee_angle_r	ankle_angle_r	subtalar_angle_r	mtp_angle_r	hip_flexion_l	hip_adduction_l	hip_rotation_l	knee_angle_l	ankle_angle_l	subtalar_angle_l	mtp_angle_l	lumbar_extension	lumbar_bending	lumbar_rotation	arm_flex_r	arm_add_r	arm_rot_r	elbow_flex_r	pro_sup_r	arm_flex_l	arm_add_l	arm_rot_l	elbow_flex_l	pro_sup_l
      2.43333330	     -6.13945408	     -1.49306996	      9.20496603	      0.31709404	      1.59731351	     -0.12647802	      4.45104290	      1.50942368	     -3.51290534	      2.43387159	      4.09646339	    -11.95989887	      0.00000000	      7.24804946	      0.22805030	      7.33757180	      5.76038066	      3.07515060	     -7.90903842	      0.00000000	     -1.76540611	      0.91256361	     -5.92821281	     -2.30511949	     -6.35931702	     -8.74379211	     29.82207979	     87.57721669	      1.00980062	    -10.59812923	      2.14838475	     31.60526918	     93.24197643
      2.45000000	     -5.86603048	     -1.33821896	      9.23026962	      0.31741940	      1.59751166	     -0.12618452	      4.16590330	      1.41746455	     -3.55759784	      2.61391496	      4.06832838	    -12.03775971	      0.00000000	      6.89863536	      0.31380027	      7.19888202	      5.75209362	      2.92585995	     -7.88185017	      0.00000000	     -1.94091262	      0.64476364	     -5.69525988	     -2.41141520	     -6.22448213	     -8.83118030	     29.46152989	     87.71069378	      1.26276665	    -11.02621419	      2.05514594	     32.76871175	     93.45485885
      2.46666670	     -5.68290473	     -1.24664298	      9.06977191	      0.31692484	      1.59773217	     -0.12606817	      3.99151560	      1.38496188	     -3.41396331	      2.72039280	      4.08266222	    -11.98862193	      0.00000000	      6.64069024	      0.34023301	      6.92632157	      5.72650463	      2.81311445	     -7.85872756	      0.00000000	     -2.06140833	      0.63529363	     -5.67886924	     -2.33683824	     -6.15687536	     -9.12997927	     29.23833821	     87.88557190	      1.13408183	    -11.54015480	      1.68179328	     34.32260888	     93.77439622
      2.48333330	     -5.73848959	     -1.22401776	      9.01155449	      0.31752963	      1.59744792	     -0.12589345	      4.10910912	      1.35701184	     -3.47617694	      2.90911700	      4.09596098	    -11.97185212	      0.00000000	      6.71719725	      0.37854748	      6.89132521	      5.80917295	      2.90165461	     -7.83370199	      0.00000000	     -1.84822053	      0.69837714	     -5.79395242	     -2.37730164	     -6.07173311	     -9.68848672	     29.13061588	     88.17938837	      0.86978821	    -11.94285224	      0.25642648	     36.30893513	     94.27524800
      2.50000000	     -5.72224929	     -1.10266458	      9.09323149	      0.31713776	      1.59950955	     -0.12607168	      4.18049885	      1.21096051	     -3.60789473	      3.17521762	      4.14587170	    -12.03016304	      0.00000000	      6.63972223	      0.50727526	      6.91631582	      5.71716050	      2.73811299	     -7.72214800	      0.00000000	     -1.69435609	      0.66655068	     -5.73797884	     -2.44004047	     -6.07578796	     -9.80591046	     29.02257921	     88.25026058	      1.52043017	    -12.37903422	     -0.33443069	     37.06609335	     94.37198985
      2.51666670	     -5.78616920	     -1.08406289	      9.03638814	      0.31140552	      1.60136462	     -0.12325967	      4.41179169	      1.18988982	     -3.57445627	      3.38907396	      4.25594267	    -11.91652981	      0.00000000	      6.66755260	      0.53276778	      6.92030927	      5.51010324	      2.77108996	     -7.70806488	      0.00000000	     -1.79167533	      0.77374257	     -6.07860261	     -2.17881973	     -5.87834358	    -10.78732404	     29.26707748	     88.44294633	      1.24863670	    -13.06832119	     -2.98143170	     41.02359470	     95.10576059
      2.53333330	     -5.79956806	     -1.04115361	      8.90343241	      0.31685237	      1.59932569	     -0.12579692	      4.51861022	      1.13749435	     -3.47113613	      3.52759071	      4.31070623	    -11.92761838	      0.00000000	      6.55814565	      0.55693836	      6.65685609	      5.25596092	      2.64877908	     -7.52919317	      0.00000000	     -1.78602411	      0.91726124	     -5.91608046	     -2.00426184	     -5.92635530	    -11.29312136	     28.92232132	     88.60260936	      1.48885089	    -13.59231692	     -4.94473643	     44.19369742	     95.80798683
      2.55000000	     -5.94004732	     -1.08088218	      8.91960791	      0.31752647	      1.59876304	     -0.12579267	      4.75885818	      1.13150787	     -3.54878498	      3.69959971	      4.41556285	    -11.80422672	      0.00000000	      6.62591334	      0.55962915	      6.71156333	      5.06426052	      2.73327471	     -7.45874025	      0.00000000	     -1.51984283	      1.11817198	     -5.84762184	     -2.10162246	     -5.90357787	    -11.96001727	     28.89885800	     88.51074420	      1.64616874	    -14.41029359	     -6.72942687	     48.94691301	     96.41236145
      2.56666670	     -6.00884719	     -1.08628508	      8.64584478	      0.31741568	      1.59622820	     -0.12570866	      4.87115992	      1.12827922	     -3.24130379	      3.73096446	      4.68245471	    -11.68408540	      0.00000000	      6.55144090	      0.53209771	      6.35740623	      4.78888056	      2.73138798	     -7.23241795	      0.00000000	     -1.22198862	      1.30454737	     -5.33836208	     -2.09422164	     -6.02799572	    -12.76233712	     28.80244028	     88.27084689	      1.87909826	    -15.30512953	     -8.32141094	     54.28640373	     96.72002978
      2.58333330	     -6.04247471	     -1.11478727	      8.81747278	      0.31793568	      1.59616111	     -0.12565184	      4.92277841	      1.13161085	     -3.41119171	      3.80249875	      4.56936164	    -11.70654634	      0.00000000	      6.46269610	      0.50649967	      6.48728117	      4.55123918	      2.87415809	     -7.06047339	      0.00000000	     -1.08204858	      1.41861839	     -5.57449929	     -2.02731383	     -5.91033506	    -13.82414983	     28.71918717	     87.71758522	      2.60998136	    -16.49520151	    -10.40026199	     60.30174414	     96.86496552
